Coordinates
version=1
nRows=14
nColumns=24
inDegrees=yes

Units are S.I. units (second, meters, Newtons, ...)
Angles are in degrees.

endheader
time	pelvis_tilt	pelvis_list	pelvis_rotation	pelvis_tx	pelvis_ty	pelvis_tz	hip_flexion_r	hip_adduction_r	hip_rotation_r	knee_angle_r	ankle_angle_r	subtalar_angle_r	mtp_angle_r	hip_flexion_l	hip_adduction_l	hip_rotation_l	knee_angle_l	ankle_angle_l	subtalar_angle_l	mtp_angle_l	lumbar_extension	lumbar_bending	lumbar_rotation
      1.32550000	      4.23573463	      3.75289482	     -3.07174782	      0.21878895	      1.07301362	      0.33041421	     10.47268549	     -5.71048149	     -2.47324933	    -66.87104595	     -6.57766226	    -11.31340451	      6.97877544	      3.01167252	      8.70305067	     -5.70352888	     -6.50354238	     -0.44440839	     -3.95564010	      1.79152790	      0.03619205	     -1.46496782	      0.48481965
      1.32966667	      4.22143437	      3.71645447	     -3.08382451	      0.22377781	      1.07356010	      0.33022219	     11.12604830	     -5.62402893	     -2.27882929	    -66.90508950	     -5.93611158	    -11.55150637	      6.89706955	      2.62935120	      8.69810162	     -5.68260976	     -6.31916851	     -0.27297952	     -3.86078902	      1.75518729	      0.02794874	     -1.40293570	      0.41627807
      1.33383333	      4.21447200	      3.67364612	     -3.09447691	      0.22876241	      1.07411227	      0.33001882	     11.75458615	     -5.52759339	     -2.08725048	    -66.87095889	     -5.31767625	    -11.74613539	      6.81633451	      2.23261083	      8.68809574	     -5.65734791	     -6.12058256	     -0.11013817	     -3.76877154	      1.71778576	      0.01312251	     -1.33195733	      0.35091041
      1.33800000	      4.21984880	      3.64408828	     -3.11693615	      0.23373994	      1.07466109	      0.32976188	     12.35869658	     -5.44968184	     -1.87733677	    -66.76207295	     -4.84246812	    -11.89358521	      6.76812054	      1.80950584	      8.70219588	     -5.56823645	     -5.89276007	      0.00609648	     -3.67482377	      1.69546240	     -0.02011227	     -1.23032331	      0.29188108
      1.34216667	      4.22770442	      3.59400346	     -3.13208422	      0.23872502	      1.07520695	      0.32957829	     12.94110795	     -5.33383537	     -1.69219766	    -66.61790800	     -4.23769756	    -12.04884256	      6.71731382	      1.38020178	      8.68415147	     -5.52307322	     -5.65521572	      0.16020992	     -3.60449223	      1.67033846	     -0.04882195	     -1.15071307	      0.23225234
      1.34633333	      4.23097784	      3.54365225	     -3.13444232	      0.24369134	      1.07573821	      0.32939012	     13.50661919	     -5.21540479	     -1.50142341	    -66.38526895	     -3.65723253	    -12.15036607	      6.66693536	      0.95547517	      8.66514535	     -5.47174199	     -5.42638539	      0.30458028	     -3.52774540	      1.64406379	     -0.07577706	     -1.06969655	      0.17327962
      1.35050000	      4.24022966	      3.49845257	     -3.13667067	      0.24865320	      1.07625278	      0.32920098	     14.05244755	     -5.09983958	     -1.31643845	    -66.10502637	     -3.08124322	    -12.21257224	      6.61575380	      0.51933906	      8.65259447	     -5.41755295	     -5.18184667	      0.44721035	     -3.44644425	      1.61591924	     -0.10187124	     -0.99942205	      0.11398554
      1.35466667	      4.24373170	      3.45121882	     -3.13240491	      0.25361973	      1.07674327	      0.32901955	     14.58518102	     -4.97709281	     -1.13199652	    -65.76245725	     -2.53360449	    -12.23890264	      6.56621137	      0.08322566	      8.63569750	     -5.35265886	     -4.92696288	      0.58023589	     -3.36518455	      1.58732907	     -0.12833134	     -0.92425439	      0.05416938
      1.35883333	      4.24542331	      3.40080100	     -3.12227223	      0.25860574	      1.07721552	      0.32883959	     15.09769903	     -4.84760464	     -0.95502516	    -65.36084837	     -1.97637898	    -12.23382822	      6.51292932	     -0.35669916	      8.61520239	     -5.29382327	     -4.66517234	      0.71609914	     -3.28857640	      1.55487967	     -0.15030120	     -0.85040461	     -0.00834142
      1.36300000	      4.25832456	      3.35731353	     -3.10950443	      0.26355424	      1.07767370	      0.32867813	     15.58585060	     -4.72197567	     -0.77706352	    -64.90575644	     -1.44401453	    -12.20188838	      6.45725245	     -0.81164862	      8.60168382	     -5.22221503	     -4.39024500	      0.84135237	     -3.21032587	      1.51944433	     -0.18297917	     -0.78708354	     -0.07284663
      1.36716667	      4.25795161	      3.31532004	     -3.09721443	      0.26851737	      1.07808837	      0.32852188	     16.07099892	     -4.59449623	     -0.59907845	    -64.39206759	     -0.99075638	    -12.16913567	      6.40987569	     -1.25827185	      8.58938875	     -5.14467959	     -4.10430731	      0.94776012	     -3.14433095	      1.48819380	     -0.21207070	     -0.72687256	     -0.13220866
      1.37133333	      4.25950095	      3.27612535	     -3.07923301	      0.27348563	      1.07848443	      0.32836059	     16.53405459	     -4.46919201	     -0.42770497	    -63.82404063	     -0.51729325	    -12.12910806	      6.36058732	     -1.71183075	      8.58023027	     -5.06364932	     -3.80920850	      1.05684675	     -3.08375918	      1.45425377	     -0.22962436	     -0.66509933	     -0.19464788
      1.37550000	      4.26616071	      3.24109946	     -3.05819884	      0.27844825	      1.07884453	      0.32820724	     16.97486683	     -4.34757402	     -0.26001872	    -63.20482612	     -0.07763784	    -12.07969747	      6.31188261	     -2.17482477	      8.57522049	     -4.98082958	     -3.50534014	      1.15896986	     -3.02945651	      1.41948965	     -0.25908686	     -0.61609274	     -0.25787457
      1.37966667	      4.21858202	      3.20281063	     -3.00030186	      0.28337277	      1.07911913	      0.32813235	     17.45206714	     -4.20968061	     -0.11215483	    -62.51288651	      0.15411799	    -12.06999979	      6.29115209	     -2.56268458	      8.54818119	     -4.93155981	     -3.24074256	      1.21385299	     -2.99944986	      1.40467815	     -0.33611814	     -0.62418916	     -0.28994149
